<svg width="42" height="42" viewBox="0 0 42 42" fill="none" xmlns="http://www.w3.org/2000/svg">
<circle cx="21" cy="21" r="21" fill="#DAD9F5"/>
<path fill-rule="evenodd" clip-rule="evenodd" d="M20.9993 8.66699C27.81 8.66699 33.3327 14.1883 33.3327 21.0003C33.3327 27.811 27.81 33.3337 20.9993 33.3337C14.1873 33.3337 8.66602 27.811 8.66602 21.0003C8.66602 14.1883 14.1873 8.66699 20.9993 8.66699Z" fill="#44408A"/>
<path d="M20.9967 23.7289V22.249" stroke="white" stroke-width="1.5" stroke-linecap="round" stroke-linejoin="round"/>
<path fill-rule="evenodd" clip-rule="evenodd" d="M24.6102 17.1094C25.596 17.1094 26.3893 17.9085 26.3893 18.8944V20.901C24.9543 21.741 23.0585 22.2485 20.9935 22.2485C18.9285 22.2485 17.0385 21.741 15.6035 20.901V18.8885C15.6035 17.9027 16.4027 17.1094 17.3885 17.1094H24.6102Z" stroke="white" stroke-width="1.5" stroke-linecap="round" stroke-linejoin="round"/>
<path d="M23.0384 17.1072V16.8937C23.0384 16.182 22.4609 15.6045 21.7492 15.6045H20.2442C19.5326 15.6045 18.9551 16.182 18.9551 16.8937V17.1072" stroke="white" stroke-width="1.5" stroke-linecap="round" stroke-linejoin="round"/>
<path d="M15.6172 23.0322L15.7274 24.4958C15.8021 25.4822 16.624 26.2446 17.6128 26.2446H24.3789C25.3676 26.2446 26.1895 25.4822 26.2642 24.4958L26.3744 23.0322" stroke="white" stroke-width="1.5" stroke-linecap="round" stroke-linejoin="round"/>
</svg>
