<svg width="42" height="42" viewBox="0 0 42 42" fill="none" xmlns="http://www.w3.org/2000/svg">
<circle cx="21" cy="21" r="21" fill="#C7F8E9"/>
<path fill-rule="evenodd" clip-rule="evenodd" d="M20.9993 8.66699C27.81 8.66699 33.3327 14.1883 33.3327 21.0003C33.3327 27.811 27.81 33.3337 20.9993 33.3337C14.1873 33.3337 8.66602 27.811 8.66602 21.0003C8.66602 14.1883 14.1873 8.66699 20.9993 8.66699Z" fill="#1AC491"/>
<path d="M23.1823 22.7211H18.7344" stroke="white" stroke-width="1.5" stroke-linecap="round" stroke-linejoin="round"/>
<path d="M20.4316 19.1479H18.7344" stroke="white" stroke-width="1.5" stroke-linecap="round" stroke-linejoin="round"/>
<path fill-rule="evenodd" clip-rule="evenodd" d="M23.3006 15C23.3006 15 18.5711 15.0025 18.5637 15.0025C16.8634 15.0129 15.8105 16.1317 15.8105 17.8382V23.5035C15.8105 25.2186 16.8714 26.3417 18.5865 26.3417C18.5865 26.3417 23.3154 26.3398 23.3234 26.3398C25.0237 26.3293 26.0772 25.21 26.0772 23.5035V17.8382C26.0772 16.1231 25.0157 15 23.3006 15Z" stroke="white" stroke-width="1.5" stroke-linecap="round" stroke-linejoin="round"/>
</svg>
