<svg width="42" height="42" viewBox="0 0 42 42" fill="none" xmlns="http://www.w3.org/2000/svg">
<circle cx="21" cy="21" r="21" fill="#C7F8E9"/>
<path fill-rule="evenodd" clip-rule="evenodd" d="M20.9993 8.66699C27.81 8.66699 33.3327 14.1883 33.3327 21.0003C33.3327 27.811 27.81 33.3337 20.9993 33.3337C14.1873 33.3337 8.66602 27.811 8.66602 21.0003C8.66602 14.1883 14.1873 8.66699 20.9993 8.66699Z" fill="#1AC491"/>
<path fill-rule="evenodd" clip-rule="evenodd" d="M19.5947 22.8701C21.7466 22.8701 23.5858 23.1962 23.5858 24.4988C23.5858 25.8014 21.7588 26.1368 19.5947 26.1368C17.4422 26.1368 15.6035 25.8136 15.6035 24.5105C15.6035 23.2073 17.4299 22.8701 19.5947 22.8701Z" stroke="white" stroke-width="1.5" stroke-linecap="round" stroke-linejoin="round"/>
<path fill-rule="evenodd" clip-rule="evenodd" d="M19.5956 21.0113C18.1828 21.0113 17.0371 19.8663 17.0371 18.4534C17.0371 17.0406 18.1828 15.8955 19.5956 15.8955C21.0079 15.8955 22.1535 17.0406 22.1535 18.4534C22.1588 19.861 21.0213 21.0061 19.6137 21.0113H19.5956Z" stroke="white" stroke-width="1.5" stroke-linecap="round" stroke-linejoin="round"/>
<path d="M23.6152 20.3471C24.5492 20.2158 25.2684 19.4143 25.2702 18.4443C25.2702 17.4882 24.5731 16.6948 23.659 16.5449" stroke="white" stroke-width="1.5" stroke-linecap="round" stroke-linejoin="round"/>
<path d="M24.8477 22.5938C25.7524 22.7285 26.3842 23.0458 26.3842 23.6992C26.3842 24.1489 26.0867 24.4406 25.606 24.6232" stroke="white" stroke-width="1.5" stroke-linecap="round" stroke-linejoin="round"/>
</svg>
