<svg width="20" height="20" viewBox="0 0 20 20" fill="none" xmlns="http://www.w3.org/2000/svg">
<path fill-rule="evenodd" clip-rule="evenodd" d="M2.5 5.41667C2.5 3.22899 2.52342 2.5 5.41667 2.5C8.30991 2.5 8.33333 3.22899 8.33333 5.41667C8.33333 7.60434 8.34256 8.33333 5.41667 8.33333C2.49077 8.33333 2.5 7.60434 2.5 5.41667Z" stroke="#7E7BB3" stroke-width="1.5" stroke-linecap="round" stroke-linejoin="round"/>
<path fill-rule="evenodd" clip-rule="evenodd" d="M11.666 5.41667C11.666 3.22899 11.6894 2.5 14.5827 2.5C17.4759 2.5 17.4993 3.22899 17.4993 5.41667C17.4993 7.60434 17.5086 8.33333 14.5827 8.33333C11.6568 8.33333 11.666 7.60434 11.666 5.41667Z" stroke="#7E7BB3" stroke-width="1.5" stroke-linecap="round" stroke-linejoin="round"/>
<path fill-rule="evenodd" clip-rule="evenodd" d="M2.5 14.5837C2.5 12.396 2.52342 11.667 5.41667 11.667C8.30991 11.667 8.33333 12.396 8.33333 14.5837C8.33333 16.7713 8.34256 17.5003 5.41667 17.5003C2.49077 17.5003 2.5 16.7713 2.5 14.5837Z" stroke="#7E7BB3" stroke-width="1.5" stroke-linecap="round" stroke-linejoin="round"/>
<path fill-rule="evenodd" clip-rule="evenodd" d="M11.666 14.5837C11.666 12.396 11.6894 11.667 14.5827 11.667C17.4759 11.667 17.4993 12.396 17.4993 14.5837C17.4993 16.7713 17.5086 17.5003 14.5827 17.5003C11.6568 17.5003 11.666 16.7713 11.666 14.5837Z" stroke="#7E7BB3" stroke-width="1.5" stroke-linecap="round" stroke-linejoin="round"/>
</svg>
